# 3ds Max Wavefront OBJ Exporter v0.97b - (c)2007 guruware
# File Created: 12.03.2015 15:25:31

mtllib ground.mtl

#
# object Plane001
#

v  -19.9998 0.0000 -0.0000
v  -19.9998 0.0000 20.0000
v  0.0002 0.0000 -0.0000
v  0.0002 0.0000 20.0000
v  20.0002 0.0000 -0.0000
v  20.0002 0.0000 20.0000
v  -19.9998 0.0000 -20.0000
v  0.0002 0.0000 -20.0000
v  20.0002 0.0000 -20.0000
# 9 vertices

vn 0.0000 1.0000 -0.0000
# 1 vertex normals

vt 0.0000 5.0000 0.0000
vt 0.0000 0.0000 0.0000
vt 5.0000 5.0000 0.0000
vt 5.0000 0.0000 0.0000
vt 10.0000 5.0000 0.0000
vt 10.0000 0.0000 0.0000
vt 0.0000 10.0000 0.0000
vt 5.0000 10.0000 0.0000
vt 10.0000 10.0000 0.0000
# 9 texture coords

g Plane001
usemtl 02___Default
s 1
f 1/1/1 2/2/1 3/3/1 
f 4/4/1 3/3/1 2/2/1 
f 3/3/1 4/4/1 5/5/1 
f 6/6/1 5/5/1 4/4/1 
f 7/7/1 1/1/1 8/8/1 
f 3/3/1 8/8/1 1/1/1 
f 8/8/1 3/3/1 9/9/1 
f 5/5/1 9/9/1 3/3/1 
# 8 faces

